<svg 
   fill="currentColor"
    aria-hidden="true"
xmlns="http://www.w3.org/2000/svg" version="1.1" viewBox="-5.0 -10.0 110.0 135.0">
 <g>
  <path d="m69.879 90.148c2.0781 0 3.7617-1.6797 3.7617-3.7617v-8.1914l-7.3711 11.949h3.6094z"/>
  <path d="m29.512 84.559v-43.117c-1.7188 0.58984-3.5312 0.92969-5.3906 1.0117v43.93c0 2.0781 1.6797 3.7617 3.7617 3.7617h27.371l0.019532-4.7383c0-0.12109 0.03125-0.23828 0.070312-0.35156l-25.332-0.003907c-0.28125 0-0.5-0.21875-0.5-0.5z"/>
  <path d="m68.238 26.309v37.762l5.3906-8.75v-30.832c0-2.0781-1.6797-3.7617-3.7617-3.7617h-7.6289v5.0781h5.5c0.28125 0 0.5 0.21875 0.5 0.5z"/>
  <path d="m36.859 36.859c-1.8516 1.8516-4.0117 3.2695-6.3594 4.2188v42.98h25.422l11.32-18.371-0.003907-38.879h-5v2.2617c0 0.28125-0.21875 0.5-0.5 0.5h-20.34c-0.92188 2.6602-2.4219 5.1602-4.5391 7.2891zm17.121 40.129h-17.172c-0.28125 0-0.5-0.21875-0.5-0.5s0.21875-0.5 0.5-0.5h17.172c0.28125 0 0.5 0.21875 0.5 0.5s-0.21875 0.5-0.5 0.5zm6.8594-9.6016h-24.031c-0.28125 0-0.5-0.21875-0.5-0.5s0.21875-0.5 0.5-0.5h24.031c0.28125 0 0.5 0.21875 0.5 0.5s-0.21875 0.5-0.5 0.5zm0-9.6016h-24.031c-0.28125 0-0.5-0.21875-0.5-0.5s0.21875-0.5 0.5-0.5h24.031c0.28125 0 0.5 0.21875 0.5 0.5s-0.21875 0.5-0.5 0.5zm0-9.6016h-24.031c-0.28125 0-0.5-0.21875-0.5-0.5s0.21875-0.5 0.5-0.5h24.031c0.28125 0 0.5 0.21875 0.5 0.5s-0.21875 0.5-0.5 0.5zm-17.68-10.602h17.68c0.28125 0 0.5 0.21875 0.5 0.5s-0.21875 0.5-0.5 0.5h-17.68c-0.28125 0-0.5-0.21875-0.5-0.5s0.21875-0.5 0.5-0.5z"/>
  <path d="m53.039 14.461c0-2.2188-1.8008-4.0312-4.0312-4.0312h-0.28125c-2.2188 0-4.0312 1.8008-4.0312 4.0312v2.8086h8.3281v-2.8086z"/>
  <path d="m61.238 28.578v-10.301h-19.422c0.89844 3.3711 0.87891 6.9414-0.078125 10.301h19.512z"/>
  <path d="m56.23 95 8.5508-4.3398 22.398-36.352-8.5078-5.2383-22.41 36.34z"/>
  <path d="m94.262 42.84c1.4492-2.3516 0.71875-5.4297-1.6289-6.8789-0.82031-0.5-1.7188-0.73828-2.6211-0.73828-1.6797 0-3.3203 0.83984-4.2617 2.3789l-2.9805 4.8281 8.5117 5.25 2.9805-4.8281z"/>
  <path d="m79.195 48.215 3.0469-4.9453 8.5117 5.2461-3.0469 4.9453z"/>
  <path d="m23.25 41.5c4.6719 0 9.3398-1.7812 12.898-5.3516 7.1289-7.1289 7.1289-18.68 0-25.809-3.5586-3.5586-8.2305-5.3516-12.898-5.3516-4.6719 0-9.3398 1.7812-12.898 5.3516-7.1289 7.1289-7.1289 18.68 0 25.809 3.5586 3.5586 8.2305 5.3516 12.898 5.3516zm-12.109-16.898 3.75-5.5898c0.078125-0.12109 0.21094-0.19922 0.35938-0.21875 0.14062-0.019531 0.28906 0.03125 0.39844 0.12891l5.3594 4.8789 8.9219-9.9492c0.10156-0.10937 0.26172-0.16016 0.37891-0.17187 0.14062 0 0.28125 0.070312 0.37109 0.17969l5.25 6.2188c0.089843 0.10156 0.12891 0.23047 0.12109 0.37109-0.011719 0.12891-0.078125 0.26172-0.17969 0.33984l-14.398 11.859c-0.089844 0.078124-0.19922 0.10937-0.32031 0.10937-0.10938 0-0.21094-0.03125-0.30078-0.10156l-9.6016-7.3789c-0.21094-0.16016-0.26172-0.46094-0.10938-0.67969z"/>
  <path d="m34.84 20.34-4.5586-5.3984-8.8711 9.8984c-0.089844 0.10156-0.21094 0.16016-0.35156 0.17188-0.12891 0-0.26172-0.039063-0.35938-0.12891l-5.3008-4.8281-3.1719 4.7188 8.9102 6.8516 13.699-11.281z"/>
 </g>
</svg>