<svg
   fill="currentColor"
 aria-hidden="true"
 xmlns="http://www.w3.org/2000/svg" viewBox="0 0 100 125" x="0px" y="0px"><g><polygon points="8.465 76.656 46.614 76.656 46.751 76.064 9.086 76.064 8.465 76.656"/><polygon points="14.46 33.655 12.36 35.996 7.318 74.986 10.452 72.002 14.46 33.655"/><path d="M74.545,66.936c4.633,2.128,9.027,4.129,12.929,4.467l-4.153-39.738c-4.471-.258-9.38-2.354-14.137-4.384-7.356-3.139-14.303-6.091-18.184-1.658v38.706c6.886-5.039,15.344-1.161,23.545,2.607Zm10.205-18.029c-.136,.424-.529,.694-.952,.694-.101,0-.204-.016-.306-.048l-9.939-3.189c-.526-.169-.815-.731-.646-1.258,.169-.524,.73-.812,1.258-.646l9.939,3.189c.526,.169,.815,.731,.646,1.258Zm-1.914-8.056c-.136,.424-.529,.694-.952,.694-.101,0-.204-.016-.306-.048l-9.94-3.189c-.526-.169-.815-.731-.646-1.258,.169-.525,.732-.812,1.258-.646l9.94,3.189c.526,.169,.815,.731,.646,1.258Zm-20.041-10.152c.169-.525,.733-.812,1.258-.646l17.179,5.513c.526,.169,.815,.731,.646,1.258-.136,.424-.529,.694-.952,.694-.101,0-.204-.016-.306-.048l-17.179-5.513c-.526-.169-.815-.731-.646-1.258Zm-1.51,6.957c.168-.525,.73-.812,1.258-.646l20.603,6.611c.526,.169,.815,.731,.646,1.258-.136,.424-.529,.694-.952,.694-.101,0-.204-.016-.306-.048l-20.603-6.611c-.526-.169-.815-.731-.646-1.258Z"/><path d="M26.29,68.753c-5.128,2.355-9.981,4.585-14.475,4.714l-.628,.598H47.216l1.682-7.24c-6.131-5.641-14.14-1.962-22.608,1.929Z"/><path d="M30.816,27.281c-4.757,2.03-9.666,4.126-14.137,4.384l-4.153,39.738c3.903-.338,8.296-2.339,12.929-4.467,8.202-3.768,16.66-7.648,23.545-2.607V25.623c-3.882-4.432-10.828-1.481-18.184,1.658Zm-12.049,8.283l17.179-5.513c.524-.168,1.088,.121,1.258,.646,.169,.526-.121,1.089-.646,1.258l-17.179,5.513c-.102,.032-.205,.048-.306,.048-.423,0-.816-.271-.952-.694-.169-.526,.121-1.089,.646-1.258Zm-.957,4.028l9.94-3.189c.525-.168,1.089,.121,1.258,.646,.169,.526-.121,1.089-.646,1.258l-9.94,3.189c-.102,.032-.205,.048-.306,.048-.423,0-.816-.271-.952-.694-.169-.526,.121-1.089,.646-1.258Zm8.637,6.771l-9.939,3.189c-.102,.032-.205,.048-.306,.048-.423,0-.816-.271-.952-.694-.169-.526,.121-1.089,.646-1.258l9.939-3.189c.527-.168,1.089,.121,1.258,.646,.169,.526-.121,1.089-.646,1.258Zm11.621-7.45l-20.603,6.611c-.102,.032-.205,.048-.306,.048-.423,0-.816-.271-.952-.694-.169-.526,.121-1.089,.646-1.258l20.603-6.611c.527-.168,1.089,.121,1.258,.646,.169,.526-.121,1.089-.646,1.258Z"/><path d="M88.186,73.467c-4.494-.129-9.347-2.358-14.475-4.714-8.469-3.892-16.476-7.569-22.608-1.929l1.682,7.24h36.029l-.628-.598Z"/><polygon points="85.54 33.655 89.548 72.002 92.682 74.986 87.64 35.996 85.54 33.655"/><polygon points="53.249 76.064 53.386 76.656 91.535 76.656 90.914 76.064 53.249 76.064"/></g></svg>