<svg 
   fill="currentColor"
    aria-hidden="true"
xmlns="http://www.w3.org/2000/svg" viewBox="0 0 64 80" x="0px" y="0px"><g data-name="Layer 24"><path d="M31.5,37.81V21.5A3.44,3.44,0,0,0,28.13,18H18V36H28A4.3,4.3,0,0,1,31.5,37.81ZM21.5,20h4c1.16,0,3.31,0,4.45,2.28a.51.51,0,0,1-.23.67.54.54,0,0,1-.22.05.5.5,0,0,1-.45-.28C28.19,21,26.64,21,25.5,21h-4a.5.5,0,0,1,0-1Zm0,5h4c1.16,0,3.31,0,4.45,2.28a.51.51,0,0,1-.23.67.54.54,0,0,1-.22.05.5.5,0,0,1-.45-.28C28.19,26,26.64,26,25.5,26h-4a.5.5,0,0,1,0-1Zm0,6a.5.5,0,0,1,0-1h4c1.16,0,3.31,0,4.45,2.28a.51.51,0,0,1-.23.67.54.54,0,0,1-.22,0,.5.5,0,0,1-.45-.28C28.19,31,26.64,31,25.5,31Z"/><circle cx="22" cy="8" r="1"/><circle cx="28" cy="8" r="1"/><path d="M36.28,36H46V18H36.13a3.57,3.57,0,0,0-3.63,3.5V37.9A4.67,4.67,0,0,1,36.28,36ZM34.05,22.28C35.19,20,37.34,20,38.5,20h4a.5.5,0,0,1,0,1h-4c-1.14,0-2.69,0-3.55,1.72a.5.5,0,0,1-.45.28.54.54,0,0,1-.22-.05A.51.51,0,0,1,34.05,22.28Zm0,5C35.19,25,37.34,25,38.5,25h4a.5.5,0,0,1,0,1h-4c-1.14,0-2.69,0-3.55,1.72a.5.5,0,0,1-.45.28.54.54,0,0,1-.22-.05A.51.51,0,0,1,34.05,27.28Zm0,5C35.19,30,37.34,30,38.5,30h4a.5.5,0,0,1,0,1h-4c-1.14,0-2.69,0-3.55,1.72a.5.5,0,0,1-.45.28.54.54,0,0,1-.22,0A.51.51,0,0,1,34.05,32.28Z"/><circle cx="16" cy="8" r="1"/><polygon points="28.5 57 21 57 21 60 44 60 44 57 35.5 57 28.5 57"/><path d="M13.5,41h37A1.5,1.5,0,0,0,52,39.5V13H12V39.5A1.5,1.5,0,0,0,13.5,41ZM17,17.5a.5.5,0,0,1,.5-.5H28.13A4.35,4.35,0,0,1,32,19.48,4.66,4.66,0,0,1,36.13,17H46.5a.5.5,0,0,1,.5.5v19a.5.5,0,0,1-.5.5H36.28a3.67,3.67,0,0,0-3,1.56l-.84,1.22h0l0,0a.48.48,0,0,1-.2.14l0,0L32,40l-.15,0,0,0a.44.44,0,0,1-.18-.12l-.05,0h0l-.79-1.22A3.32,3.32,0,0,0,28,37H17.5a.5.5,0,0,1-.5-.5Z"/><rect x="29" y="53" width="6" height="3"/><path d="M53,17V39.5A2.5,2.5,0,0,1,50.5,42h-37A2.5,2.5,0,0,1,11,39.5V17A7.5,7.5,0,0,0,4,24.5v20A7.41,7.41,0,0,0,4.15,46h55.7A7.41,7.41,0,0,0,60,44.5v-20A7.5,7.5,0,0,0,53,17Z"/><path d="M11.5,52h41a7.5,7.5,0,0,0,7.06-5H4.44A7.5,7.5,0,0,0,11.5,52Z"/><path d="M52,5.5A1.5,1.5,0,0,0,50.5,4h-37A1.5,1.5,0,0,0,12,5.5V12H52ZM16,10a2,2,0,1,1,2-2A2,2,0,0,1,16,10Zm6,0a2,2,0,1,1,2-2A2,2,0,0,1,22,10Zm6,0a2,2,0,1,1,2-2A2,2,0,0,1,28,10Z"/></g></svg>