<svg xmlns="http://www.w3.org/2000/svg" version="1.1" viewBox="-5.0 -10.0 110.0 135.0">
 <path d="m39.445 16v0.003906h-0.003906c-0.51562 0-1.0078 0.20312-1.3711 0.56641-0.36328 0.36328-0.57031 0.85938-0.57031 1.375v2.6914l3.8906-0.003907v-0.74219h17.215v0.74609l3.8906-0.003907v-2.6875c0-1.0703-0.87109-1.9414-1.9453-1.9414l-21.105-0.003906v0.003906zm-16.18 6.0898c-0.51562 0-1.0078 0.20312-1.375 0.57031-0.36328 0.36328-0.56641 0.85938-0.56641 1.375v12.488c0 0.51562 0.20312 1.0117 0.56641 1.375 0.36719 0.36328 0.85938 0.57031 1.375 0.57031h53.465c1.0742 0 1.9414-0.87109 1.9414-1.9453v-12.488c0-1.0742-0.86719-1.9453-1.9414-1.9453zm13.215 21.195c0.96875 0 1.8047 0.71875 1.9258 1.7031l3.5 28.07c0.13281 1.0664-0.625 2.0391-1.6914 2.1719-0.082032 0.007812-0.16016 0.015625-0.24219 0.015625-0.96484 0-1.8047-0.72266-1.9258-1.707l-3.4961-28.07c-0.13281-1.0625 0.62109-2.0352 1.6875-2.168 0.070313-0.007812 0.14453-0.015625 0.21484-0.015625h0.027344zm27.035 0c0.082031 0 0.16016 0.003906 0.24219 0.015625 1.0664 0.13281 1.8242 1.1055 1.6914 2.168l-3.5 28.07c-0.12109 0.98438-0.96094 1.707-1.9258 1.707-0.082032 0-0.16016-0.007813-0.24219-0.015625-1.0664-0.13281-1.8242-1.1055-1.6914-2.1719l3.5-28.07c0.12109-0.98047 0.95703-1.7031 1.9219-1.7031l0.003906 0.003906zm-13.516-0.10938v0.003907c1.0703-0.003907 1.9414 0.86719 1.9414 1.9414v28.289c0 1.0742-0.87109 1.9414-1.9414 1.9414-1.0742 0-1.9453-0.86719-1.9453-1.9414v-28.289c0-1.0742 0.86719-1.9414 1.9414-1.9414h0.003906v-0.003907 0.003907zm-26.07-3.2461 5.0195 39.18c0.35156 2.75 2.6992 4.875 5.5469 4.8789h31.184c2.8438-0.003906 5.1953-2.1289 5.5469-4.8789l5.0195-39.184z"/></svg>