<svg xmlns="http://www.w3.org/2000/svg" xmlns:xlink="http://www.w3.org/1999/xlink" version="1.1" x="0px" y="0px" viewBox="0 0 500 500" style="enable-background:new 0 0 512 512;" xml:space="preserve"><g><path d="M180.1,461.2c0.9,18.7-16.5,33-34.8,28.1c-6.8-1.8-13-6.3-16.8-12.9l0,0l-41.3-71.6c-4-6.3-4.7-14.5-2.9-21.3   c5.3-19.7,29-26.9,44.4-14.1l48.7-28.2C77.8,287.2,57.7,152.1,138.3,71.5c66.4-66.4,174.2-66.4,240.6,0   c61.2,61.2,66.8,158.7,12.7,226.4c-21.9,27.3-51.9,47.8-86.5,57.6c2.4,4.5,3.6,9.5,3.2,14.5l61.8-35.7v0   c34.5-19.9,60.8,19.2,28,41.9l-101.4,70c-4.4,3-9.1,4.2-14.4,3.7l-66.7-7.2c-2.4-0.3-3.9,0.2-5.9,1.4L180.1,461.2z M165.9,454.8   l-41.3-71.5c-7.7-12.8-25.2-9.5-28.6,3.5c-1,3.8-0.6,8.2,1.5,11.8l41.5,71.9l0,0c7.1,11.9,24.8,9.5,28.4-3.8   C168.5,462.7,168,458.5,165.9,454.8L165.9,454.8z M288.4,393.7l-57-9.2c-7.9-1.3-6-13.2,1.9-12l54.9,8.9c4.1-2.8,6.5-6.2,7.4-9.6   c1-3.8,0.3-7.8-1.7-11.3l0,0c-2.8-4.7-7.2-8-12.7-9.4L219,334.5c-2.5-0.7-4.7-0.4-6.9,0.9l-75.8,43.8l40.5,70.1l27.3-15.8   c3.9-2.4,8.5-3.2,13-2.8l66.7,7.1c2.3,0.3,4.3-0.3,6.2-1.6l101.4-70c20.1-13.9,6-33.6-15-21.4l0,0L292.7,393   C291.3,393.8,289.8,394,288.4,393.7L288.4,393.7z M189.8,334.1l16.5-9.5c5.2-2.7,10.1-3.5,15.8-1.9l62.3,16.7   c4.5,1.2,8.5,3.2,11.9,5.9c70-17.2,120.2-80.3,120.2-153.4c0-87.2-70.7-158-157.9-158c-87.2,0-158,70.7-158,158   C100.6,253,135.7,307.9,189.8,334.1L189.8,334.1z M312.3,260.7c9,2.8,15.4,11.3,15.4,21v15.9c0,3.4-2.7,6.1-6.1,6.1H195.5   c-3.4,0-6.1-2.8-6.1-6.1v-15.9c0-9.7,6.4-18.1,15.4-21c0-8.8-1-15.9,5.9-22.7c3.6-3.6,8.5-5.8,14-5.8h13.5V122.9   c-7.1-5.3-12-13.2-13.4-22.1c-25,1.4-32.4,21-47.5,30.3l33.6,72c0.8,1.6,0.8,3.5,0,5.2l-7.6,16.4c-3.6,7.8-11.2,12.6-19.7,12.6   h-24.6c-8.5,0-16-4.8-19.7-12.6l-7.8-16.6c-0.8-1.9-0.6-3.7,0.3-5.4l32.6-70c-11.9-3.8-14.8-19.5-4.9-27.2c2.4-1.9,5.3-3.1,8.4-3.3   c8-0.6,8.9,11.5,0.9,12.1c-4.2,0.3-4.3,6.4-0.2,6.9c3.4,0.5,10.4-7.3,13.5-10.4c9.8-10,20.9-21.3,42.8-22.2   c5.3-26.5,38.4-36.7,57.7-17.4c4.7,4.7,8,10.7,9.3,17.4c32.1,1.3,42.6,26,54.3,32.3c4.7,2.5,7.4-6.2,1.8-6.6   c-8-0.6-7-12.8,0.9-12.1c17,1.3,19.7,25.4,3.5,30.5l32.9,70.4c0.8,1.6,0.8,3.5,0,5.2l-7.6,16.4c-3.6,7.8-11.1,12.6-19.7,12.6h-24.6   c-8.5,0-16.1-4.8-19.7-12.6l-7.8-16.7c-0.7-1.8-0.5-3.6,0.4-5.3l33.4-71.6c-15.1-9.3-22.6-29-47.5-30.3c-1.4,9-6.3,16.9-13.5,22.1   v109.2h13.5c10.9,0,19.8,8.9,19.8,19.8V260.7z M211.4,271.8c-5.4,0-9.8,4.4-9.8,9.8v9.8h113.9v-9.8c0-5.4-4.4-9.8-9.8-9.8H211.4z    M266.7,128.7c-5.3,1.3-11,1.3-16.4,0v103.5h16.4V128.7z M274.1,79.9c-13.8-13.9-37.6-4-37.6,15.6c0,19.7,23.9,29.4,37.6,15.6   C282.7,102.4,282.7,88.5,274.1,79.9L274.1,79.9z M366.9,219.5l3.6-7.7h-49.2l3.6,7.7c1.6,3.5,4.8,5.5,8.7,5.5h24.6   C362.1,225,365.2,223.1,366.9,219.5L366.9,219.5z M357.4,171.7l-11.6-24.8l-24.6,52.7h49.2L357.4,171.7z M192.2,219.5l3.6-7.7   h-49.2l3.6,7.7c1.6,3.5,4.8,5.5,8.7,5.5h24.6C187.4,225,190.6,223.1,192.2,219.5L192.2,219.5z M182.8,171.7l-11.6-24.8l-24.6,52.7   h49.2L182.8,171.7z M292.5,244.3h-67.8c-4.2,0-7.7,3.5-7.7,7.7v7.7h83.2V252C300.1,247.7,296.7,244.3,292.5,244.3L292.5,244.3z"/></g>
</svg>