<svg xmlns="http://www.w3.org/2000/svg" version="1.1" viewBox="-5.0 -10.0 110.0 135.0">
 <path d="m68.742 5.875 1.5625 3.8242c0.066406 0.16016 0.20312 0.26172 0.375 0.27344l4.1211 0.30469c0.18359 0.015625 0.32812 0.12891 0.38672 0.30469 0.054688 0.17578 0.003906 0.35547-0.13672 0.47266l-3.1523 2.668c-0.13281 0.10938-0.18359 0.27344-0.14453 0.44141l0.98438 4.0117c0.042969 0.17969-0.019531 0.35547-0.16797 0.46094-0.14844 0.10547-0.33594 0.11328-0.49219 0.019531l-3.5117-2.1758c-0.14453-0.089844-0.31641-0.089844-0.46484 0l-3.5117 2.1758c-0.15625 0.097656-0.34375 0.089844-0.49219-0.019531-0.14844-0.10547-0.21094-0.28516-0.16797-0.46094l0.98437-4.0117c0.039063-0.16797-0.011718-0.33203-0.14453-0.44141l-3.1523-2.668c-0.14063-0.11719-0.19141-0.30078-0.13672-0.47266 0.058593-0.17578 0.20312-0.28906 0.38672-0.30469l4.1211-0.30469c0.17188-0.011718 0.3125-0.11328 0.375-0.27344l1.5625-3.8242c0.070313-0.16797 0.22656-0.27344 0.40625-0.27344 0.18359 0 0.33984 0.10547 0.40625 0.27344zm16.867 13.375 1.3398 3.2812c0.054687 0.13672 0.17578 0.22266 0.32031 0.23438l3.5352 0.26172c0.15625 0.011718 0.28125 0.10938 0.33203 0.26172 0.050781 0.14844 0.003906 0.30469-0.11719 0.40625l-2.707 2.2891c-0.11328 0.09375-0.15625 0.23438-0.12109 0.37891l0.84375 3.4453c0.035156 0.15234-0.019531 0.30469-0.14453 0.39453-0.12891 0.09375-0.28906 0.097656-0.42188 0.015625l-3.0156-1.8672c-0.125-0.078124-0.27344-0.078124-0.39844 0l-3.0156 1.8672c-0.13281 0.082031-0.29687 0.078125-0.42187-0.015625-0.12891-0.09375-0.18359-0.24219-0.14453-0.39453l0.84375-3.4453c0.035156-0.14453-0.011718-0.28516-0.12109-0.37891l-2.707-2.2891c-0.12109-0.10156-0.16406-0.25781-0.11328-0.40625 0.050781-0.14844 0.17578-0.25 0.33203-0.26172l3.5352-0.26172c0.14844-0.011719 0.26562-0.097656 0.32031-0.23438l1.3398-3.2812c0.058594-0.14453 0.19141-0.23438 0.35156-0.23438 0.15625 0 0.28906 0.089844 0.35156 0.23438zm-33.852 0 1.3398 3.2812c0.054688 0.13672 0.17578 0.22266 0.32031 0.23438l3.5352 0.26172c0.15625 0.011718 0.28516 0.10938 0.33203 0.26172 0.046875 0.14844 0.003906 0.30469-0.11719 0.40625l-2.707 2.2891c-0.11328 0.09375-0.15625 0.23438-0.12109 0.37891l0.84375 3.4453c0.035156 0.15234-0.019532 0.30469-0.14453 0.39453-0.12891 0.09375-0.28906 0.097656-0.42187 0.015625l-3.0156-1.8672c-0.125-0.078124-0.27344-0.078124-0.39844 0l-3.0156 1.8672c-0.13281 0.082031-0.29688 0.078125-0.42188-0.015625-0.12891-0.09375-0.18359-0.24219-0.14453-0.39453l0.84375-3.4453c0.035156-0.14453-0.011719-0.28516-0.12109-0.37891l-2.707-2.2891c-0.12109-0.10156-0.16406-0.25781-0.11328-0.40625 0.050781-0.14844 0.17578-0.25 0.33203-0.26172l3.5352-0.26172c0.14844-0.011719 0.26562-0.097656 0.32031-0.23438l1.3398-3.2812c0.058594-0.14453 0.19141-0.23438 0.35156-0.23438 0.15625 0 0.28906 0.089844 0.35156 0.23438zm21.004 10.641c-1.1328-1.1328-2.6992-1.8359-4.4258-1.8359-1.7305 0-3.293 0.69922-4.4258 1.832-1.1328 1.1328-1.8359 2.6992-1.8359 4.4258 0 1.7305 0.69922 3.293 1.8359 4.4258 1.1328 1.1328 2.6992 1.832 4.4258 1.832 1.7305 0 3.293-0.69922 4.4258-1.8359 1.1328-1.1328 1.8359-2.6992 1.8359-4.4258 0-1.7305-0.69922-3.293-1.8359-4.4258zm5.1406 17.957c-2.4492-2.4492-5.832-3.9648-9.5664-3.9648-3.7344 0-7.1172 1.5156-9.5664 3.9648-2.1836 2.1836-3.625 5.1094-3.9102 8.3672h26.953c-0.28516-3.2578-1.7266-6.1836-3.9102-8.3672zm-37.68 37.035v-33.75c-3.5547-1.6172-7.5703-2.707-11.594-3.2031-3.918-0.48438-7.8242-0.41016-11.305 0.27734v33.914c3.3164-0.48438 7.4648-0.41797 11.594 0.09375 4.0156 0.49609 8.0469 1.4219 11.305 2.668zm15.438-37.113c-2.0391 2.6758-3.2539 6.0195-3.2539 9.6445 0 0.66016 0.53516 1.1992 1.1992 1.1992h11.906v23.508c-3.3164-0.48438-7.4648-0.41797-11.594 0.09375-4.0156 0.49609-8.0469 1.4219-11.305 2.668v-33.75c2.2812-1.0391 4.7539-1.8594 7.293-2.4453 1.8984-0.4375 3.8359-0.74609 5.7539-0.91797zm-40.73 6.5469v29.23c0 0.66016 0.53516 1.1992 1.1992 1.1992 0.10938 0 0.21875-0.015625 0.31641-0.042969 3.2344-0.67969 7.6953-0.66797 12.184-0.10938 4.2109 0.52344 8.4062 1.5195 11.594 2.8672v4.0703c-4.082-1.3125-9.2383-2.2773-14.379-2.793-5.2422-0.52344-10.492-0.57812-14.613-0.054687v-33.918c0.52734-0.085937 1.0664-0.16406 1.6289-0.23438 0.69141-0.085938 1.3828-0.15625 2.0703-0.21484zm27.688 37.215c4.082-1.3125 9.2383-2.2773 14.379-2.793 5.2422-0.52344 10.492-0.57812 14.613-0.054687v-30.07h-3.6992v24.938c0 0.66016-0.53516 1.1992-1.1992 1.1992-0.10938 0-0.21875-0.015625-0.31641-0.042969-3.2344-0.67969-7.6992-0.66797-12.184-0.10938-4.2109 0.52344-8.4062 1.5195-11.594 2.8672v4.0703zm31.387-32.918h9.0586c0.66016 0 1.1992-0.53516 1.1992-1.1992 0-4.3984-1.7812-8.3789-4.6641-11.262-1.9766-1.9766-4.4688-3.4375-7.2617-4.1562 0.78516-0.41016 1.5-0.9375 2.1211-1.5586 1.5664-1.5664 2.5352-3.7305 2.5352-6.1211s-0.96875-4.5547-2.5352-6.1211c-1.5664-1.5664-3.7305-2.5352-6.1211-2.5352-2.3906 0-4.5547 0.96875-6.1211 2.5352-1.5664 1.5664-2.5352 3.7305-2.5352 6.1211s0.96875 4.5547 2.5352 6.1211c0.62109 0.62109 1.3359 1.1484 2.1211 1.5586-2.3398 0.60547-4.4727 1.7305-6.2656 3.2461-2.8828 0.078124-5.8281 0.45312-8.6914 1.1172-2.7695 0.64062-5.4688 1.543-7.957 2.6953-3.8398-1.7773-8.1719-2.9648-12.5-3.5039-4.5352-0.5625-9.082-0.41016-13.062 0.52344-0.55078 0.12891-0.92578 0.62109-0.92578 1.1641v4.6797c-0.8125 0.0625-1.6016 0.14062-2.3594 0.23828-0.91406 0.11328-1.8359 0.25781-2.7539 0.43359-0.57422 0.10938-0.97656 0.60938-0.97656 1.1758h-0.003906v36.309c0 0.66016 0.53516 1.1992 1.1992 1.1992 0.089844 0 0.17969-0.011719 0.26563-0.03125 4.082-0.69531 9.6875-0.6875 15.312-0.125 5.6602 0.56641 11.305 1.6875 15.395 3.2109l0.027343 0.007813h0.003907l0.003906 0.003906 0.035156 0.011718 0.019531 0.003907 0.011719 0.003906 0.015625 0.003906 0.019532 0.003907 0.011718 0.003906 0.015625 0.003906 0.011719 0.003906 0.046875 0.011719h0.007813s0.023437 0.003906 0.023437 0.003906h0.007813s0.019531 0.003907 0.019531 0.003907h0.011719s0.019531 0.003906 0.019531 0.003906h0.007812s0.019531 0.003906 0.019531 0.003906h0.011719l0.015625 0.003906h0.015625 0.019531 0.007813 0.019531 0.019532 0.007812 0.019531 0.015625 0.015625l0.011719-0.003906h0.019531l0.007813-0.003906 0.019531-0.003906h0.011719s0.019531-0.003907 0.019531-0.003907h0.007813s0.023437-0.003906 0.023437-0.003906h0.007813l0.046874-0.011719 0.011719-0.003906 0.015625-0.003906 0.011719-0.003906 0.019531-0.003907 0.015625-0.003906 0.011719-0.003906 0.019531-0.003907 0.035157-0.011718h0.003906l0.003906-0.003906 0.027344-0.007813c4.0898-1.5234 9.7344-2.6445 15.395-3.2109 5.6211-0.5625 11.23-0.57031 15.309 0.125 0.085937 0.019531 0.17578 0.03125 0.26562 0.03125 0.66016 0 1.1992-0.53516 1.1992-1.1992v-31.461z" fill-rule="evenodd"/></svg>