<svg xmlns="http://www.w3.org/2000/svg" viewBox="0 0 60 70" fill="none" x="0px" y="0px"><path d="M14 40C12.8954 40 12 40.8954 12 42C12 43.1046 12.8954 44 14 44H19C20.1046 44 21 43.1046 21 42C21 40.8954 20.1046 40 19 40H14Z" fill="black"/><path d="M48 40C48 38.8954 47.1046 38 46 38C44.8954 38 44 38.8954 44 40V46.5C44 47.6046 44.8954 48.5 46 48.5H52.5C53.6046 48.5 54.5 47.6046 54.5 46.5C54.5 45.3954 53.6046 44.5 52.5 44.5H48V40Z" fill="black"/><path fill-rule="evenodd" clip-rule="evenodd" d="M15.2752 2C11.2749 2 7.65951 4.38397 6.08372 8.06081L2 17.5895V42C2 48.6274 7.37258 54 14 54H32.1405C34.907 58.7824 40.0777 62 46 62C54.8366 62 62 54.8366 62 46C62 40.0777 58.7824 34.907 54 32.1405V17.5895L49.9163 8.06081C48.3405 4.38397 44.7251 2 40.7248 2H15.2752ZM30 46C30 47.3812 30.175 48.7215 30.5041 50H14C9.58172 50 6 46.4183 6 42V20H50V30.5041C48.7215 30.175 47.3812 30 46 30C37.1634 30 30 37.1634 30 46ZM9.7603 9.63648C10.7058 7.43038 12.875 6 15.2752 6H26V16H7.03308L9.7603 9.63648ZM30 16V6H40.7248C43.125 6 45.2942 7.43038 46.2397 9.63649L48.9669 16H30ZM46 34C39.3726 34 34 39.3726 34 46C34 52.6274 39.3726 58 46 58C52.6274 58 58 52.6274 58 46C58 39.3726 52.6274 34 46 34Z" fill="black"/></svg>