<svg xmlns="http://www.w3.org/2000/svg" version="1.1" viewBox="-5.0 -10.0 110.0 135.0">
 <path d="m69.262 90.004 2.3398-8.4688-15.637-4.3359-2.3398 8.4688 15.641 4.3359zm-0.86328-11.488-8.6367-2.3945c0.015625-7.8789 4.5-13.449 12.301-14.844 0.21094-0.035156 0.40234-0.13672 0.55078-0.28906l7.7266-7.7891c2.7383-2.7617 7.0195 1.0156 4.4102 3.9102l-4.9414 5.4922c-0.37891 0.42188-0.34766 1.0703 0.074218 1.4492 0.42578 0.38281 1.0742 0.34766 1.4531-0.074219l4.9453-5.4844c1.7969-1.8242 1.8125-4.7539 0.03125-6.5938l2.0469-12.965-0.003906 0.003906c0.09375-0.65625 0.41016-1.2578 0.89453-1.707 0.67578-0.57031 1.6211-0.6875 2.418-0.30859 0.79297 0.38281 1.293 1.1953 1.2695 2.0781l-0.007812 0.17578c0.050781 26.836-10.703 30.953-17.734 33.648-3.668 1.3984-6.457 2.4727-6.793 5.6992zm16.043-27.945 1.8867-11.953c0.25391-2.3711 2.332-4.1211 4.7109-3.9727 2.3008 0.19531 4.0391 2.1602 3.9531 4.4648l-0.007813 0.09375c0.042969 28.223-11.504 32.645-19.055 35.535-3.0352 1.1641-5.3164 2.0352-5.4883 4.3359l2.1602 0.60156-0.003906 0.003907c0.85938 0.25391 1.3477 1.1523 1.0938 2.0117l-2.5586 9.2578c-0.22266 0.86328-1.1055 1.3828-1.9688 1.1602l-16.535-4.5859c-0.85938-0.25391-1.3477-1.1523-1.0977-2.0117l2.5547-9.2461 0.003906 0.003906c0.21875-0.87109 1.1055-1.3945 1.9727-1.1758l1.6523 0.46094 0.003906-0.003907c-0.007812-3.7266 1.2148-7.3555 3.4727-10.32 2.5742-3.1406 6.1992-5.2422 10.199-5.918l7.5-7.5547v-0.003906c1.4141-1.5352 3.6445-2.0117 5.5586-1.1836zm-22.41 32.016c0.33984-0.19141 0.75391-0.20703 1.1016-0.03125 0.35156 0.17187 0.58984 0.51172 0.64063 0.89844 0.046874 0.38672-0.097657 0.77344-0.39453 1.0273-0.29297 0.25781-0.69531 0.34766-1.0742 0.24609-0.45313-0.125-0.78516-0.51172-0.84766-0.98047-0.058593-0.46484 0.16797-0.92188 0.57422-1.1602zm-2.5352 0.16797c0.34375-1.2578 1.4141-2.1875 2.707-2.3516 1.2969-0.16797 2.5625 0.46484 3.2109 1.5977 0.64844 1.1328 0.54688 2.543-0.25 3.5781-0.80078 1.0312-2.1406 1.4805-3.4023 1.1367-1.7148-0.47266-2.7266-2.2422-2.2617-3.9609zm11.449-17.535c0.24219 1.2305-0.03125 2.5039-0.75391 3.5312-0.31641 0.46484-0.19922 1.0977 0.26172 1.4219 0.45703 0.32031 1.0938 0.21484 1.4219-0.23828 1.043-1.4844 1.4375-3.3281 1.0898-5.1094-0.10938-0.55859-0.65234-0.92188-1.2109-0.8125-0.55469 0.10938-0.91797 0.65234-0.80859 1.2109zm-42.547 16.316 2.3398 8.4688 15.641-4.3359-2.3438-8.4688zm1.1641-2.457c-0.17188-2.3008-2.4531-3.1758-5.4883-4.3359-7.5508-2.8906-19.102-7.3125-19.055-35.535l-0.007812-0.09375v-0.003906c-0.089844-2.3594 1.7305-4.3516 4.0898-4.4766 2.3281-0.066406 4.3164 1.6719 4.5664 3.9844l1.8867 11.953c1.9141-0.82812 4.1484-0.35547 5.5586 1.1836l7.5 7.5547v0.003906c4 0.67578 7.625 2.7773 10.199 5.918 2.2578 2.9648 3.4805 6.5938 3.4727 10.32l1.6523-0.46094 0.003906 0.003906c0.86719-0.21875 1.7539 0.30469 1.9727 1.1758l2.5547 9.2461 0.003906-0.003906c0.25 0.85938-0.23828 1.7578-1.0977 2.0117l-16.535 4.5859c-0.86719 0.22266-1.75-0.29688-1.9727-1.1641l-2.5586-9.2539c-0.25391-0.85938 0.23438-1.7578 1.0898-2.0117l2.1602-0.60156zm-15.871-27.18c-1.7852 1.8438-1.7695 4.7695 0.027344 6.5938l4.9453 5.4844c0.37891 0.42188 1.0312 0.45703 1.4531 0.078126 0.42187-0.38281 0.45312-1.0312 0.074218-1.4531l-4.9414-5.4844c-2.6094-2.8945 1.6719-6.6719 4.4102-3.9102l7.7227 7.7852c0.14844 0.15234 0.33984 0.25391 0.55078 0.28906 7.6328 1.3633 12.285 6.7891 12.301 14.84l-8.6328 2.3945c-0.33984-3.2227-3.125-4.293-6.793-5.6992-7.0352-2.6914-17.789-6.8086-17.738-33.645v-0.10938c-0.046874-0.58984 0.15625-1.1719 0.55469-1.6055 1.3008-1.4453 3.6562-0.82422 4.0195 1.4766zm25.301 28.898-0.003907 0.003906c1.1367 0.64453 1.7695 1.9141 1.6055 3.207-0.16406 1.2969-1.0938 2.3633-2.3555 2.707-1.2578 0.34375-2.6016-0.10547-3.3984-1.1367-0.80078-1.0312-0.89844-2.4453-0.25-3.5781 0.88672-1.543 2.8516-2.082 4.3984-1.1992zm-0.47656 2.4922-0.003906 0.003907c0.10547 0.37891 0.011719 0.78125-0.24219 1.0742-0.25781 0.29687-0.64453 0.44141-1.0312 0.39453-0.38672-0.050781-0.72266-0.28906-0.89844-0.64062-0.17188-0.34766-0.16016-0.76172 0.03125-1.1016 0.23438-0.41016 0.69531-0.64062 1.1641-0.58203 0.46875 0.0625 0.85547 0.39844 0.97656 0.85547zm-11.48-18.465c-0.34766 1.7812 0.046875 3.625 1.0898 5.1094 0.32812 0.45312 0.96484 0.55859 1.4219 0.23828 0.46094-0.32422 0.57812-0.95703 0.26172-1.4219-0.72266-1.0273-0.99609-2.3008-0.75391-3.5312 0.10937-0.55859-0.25391-1.1016-0.80859-1.2109-0.55859-0.10937-1.1016 0.25391-1.2109 0.80859zm10.773-34.664c-3.6953-1.3828-7.8555-0.40234-10.543 2.4805-2.6914 2.8828-3.3789 7.1016-1.7461 10.688 1.6367 3.5898 5.2695 5.8398 9.2109 5.7031 3.9375-0.13672 7.4062-2.6328 8.7891-6.3281 1.8867-5.0391-0.67188-10.656-5.7109-12.543zm-8.3086-1.6094c-4.3438 1.9805-7.0664 6.3789-6.9023 11.148 0.16406 4.7695 3.1875 8.9727 7.6562 10.645 4.4727 1.6719 9.5078 0.48828 12.766-3.0039 3.2539-3.4883 4.0859-8.5977 2.1094-12.941-2.6992-5.9297-9.6992-8.5469-15.629-5.8477zm5.5742 9.4766-0.68359-2.1133-0.68359 2.1133h0.003907c-0.13672 0.42578-0.53125 0.71094-0.97656 0.71094h-2.2227l1.8008 1.3008c0.35938 0.26172 0.51172 0.72656 0.375 1.1523l-0.69531 2.1094 1.7773-1.3008c0.36328-0.27344 0.85938-0.27734 1.2266-0.011719l1.8008 1.3086-0.67969-2.0781h-0.003907c-0.15625-0.42969-0.007812-0.91797 0.36328-1.1875l1.8008-1.3008h-2.1719c-0.46484 0.023437-0.88672-0.26953-1.0273-0.71094zm0.30078-5.7656c-0.13672-0.42578-0.53125-0.71484-0.97656-0.71484-0.44922 0-0.84375 0.28516-0.98438 0.71094l-1.4297 4.4297-4.5859-0.011719c-0.45703-0.03125-0.88281 0.24219-1.0391 0.67578-0.15625 0.42969-0.007813 0.91406 0.36328 1.1836l3.7695 2.7266-1.4414 4.4297c-0.13672 0.42188 0.015625 0.88281 0.375 1.1445 0.35938 0.26172 0.84375 0.26172 1.2031 0l3.7617-2.7422 3.6992 2.6992c0.35156 0.29688 0.85547 0.32812 1.2383 0.070312 0.38281-0.25391 0.55078-0.73438 0.41016-1.1719l-1.4453-4.4258 3.7695-2.7305-0.003906 0.003906c0.35938-0.26172 0.50781-0.72656 0.37109-1.1484-0.13672-0.42188-0.52734-0.70703-0.96875-0.71094l-4.6562 0.007812-1.4258-4.4219zm28.863 20.789v0.003907c0.51562 0.23828 1.125 0.011718 1.3633-0.5l1.8555-3.9961c0.23828-0.51562 0.015625-1.125-0.5-1.3633l-3.1992-1.4844c0.21484-1.5469-0.60156-3.0469-2.0156-3.707-1.4141-0.65625-3.0898-0.3125-4.1328 0.84766l-3.1992-1.4883v0.003907c-0.24609-0.11719-0.53125-0.12891-0.78516-0.035157-0.25781 0.09375-0.46484 0.28516-0.57812 0.53516l-1.8633 3.9922c-0.23828 0.51562-0.011719 1.125 0.5 1.3672 0.35938 0.16406 0.63281 0.46094 0.76562 0.83203 0.20703 0.5625 0.054687 1.1953-0.38672 1.6016-0.44531 0.41016-1.0898 0.50781-1.6328 0.25391-0.51563-0.23828-1.125-0.011718-1.3633 0.5l-1.8555 3.9961c-0.23828 0.51562-0.015626 1.125 0.5 1.3633l12.547 5.8281c0.51172 0.23828 1.125 0.015626 1.3633-0.5l1.8555-3.9922c0.23828-0.51562 0.015626-1.1289-0.5-1.3672-0.35547-0.16406-0.63281-0.46094-0.76562-0.83203-0.20703-0.5625-0.050782-1.1953 0.39062-1.6016 0.44141-0.40625 1.0859-0.50781 1.6289-0.25391zm-2.9883 3.9844v0.003906c-1.1602-1.043-1.5039-2.7148-0.84766-4.1289 0.65625-1.4141 2.1562-2.2305 3.6992-2.0195l1.0508-2.2656-3.0508-1.4258c-0.51562-0.23828-0.73828-0.84766-0.5-1.3633 0.25-0.54688 0.15234-1.1875-0.25391-1.6328-0.40625-0.44141-1.043-0.59375-1.6055-0.39062-0.36719 0.13672-0.66797 0.41016-0.83203 0.76562-0.23828 0.51562-0.85156 0.73828-1.3633 0.5l-3.0625-1.4219-1.0625 2.2734c1.1602 1.043 1.5039 2.7188 0.84766 4.1328-0.65625 1.4102-2.1602 2.2305-3.7031 2.0156l-1.0547 2.2656 10.684 4.9609zm0.30078-47.145h-2.7812v1.2148c0 0.48438-0.33594 0.90625-0.8125 1.0078-1.3047 0.28125-2.543 0.81641-3.6406 1.5742-0.39844 0.27344-0.93359 0.23047-1.2852-0.097656l-0.88672-0.83203-1.9062 2.043 0.83984 0.78516c0.39453 0.32422 0.48828 0.88672 0.23047 1.3203-0.55859 0.94141-0.96094 1.9609-1.2031 3.0273-0.085938 0.49609-0.51172 0.85547-1.0117 0.85547h-1.2148v2.7812h1.2109c0.48438 0 0.90625 0.33594 1.0078 0.8125 0.26562 1.2461 0.76953 2.4297 1.4766 3.4922 0.26953 0.40234 0.21875 0.9375-0.11719 1.2852l-0.84375 0.87109 2 1.9375 0.84766-0.87109c0.33203-0.34766 0.86328-0.41406 1.2734-0.16016 0.98047 0.60547 2.0547 1.043 3.1797 1.2969 0.49609 0.085937 0.85938 0.51172 0.85938 1.0156v1.2109h2.7812l-0.003907-1.2148c0-0.48438 0.33984-0.90234 0.8125-1.0039 1.3047-0.28125 2.543-0.81641 3.6406-1.5781 0.39844-0.27344 0.93359-0.23047 1.2852 0.10156l0.88672 0.83203 1.9062-2.0352-0.83984-0.78516v-0.003906c-0.39063-0.32422-0.48828-0.88281-0.22656-1.3203 0.55469-0.94141 0.96094-1.9609 1.1992-3.0273 0.085937-0.49219 0.51562-0.85547 1.0156-0.85547h1.2109v-2.7812h-1.207c-0.48438 0.003907-0.90625-0.33594-1.0078-0.80859-0.26953-1.25-0.76953-2.4336-1.4805-3.4961-0.26562-0.40234-0.21484-0.9375 0.12109-1.2852l0.84375-0.87109-2-1.9375-0.84766 0.87109v0.003906c-0.33203 0.34375-0.86328 0.41016-1.2734 0.15625-0.98047-0.60547-2.0586-1.0469-3.1836-1.3008-0.49219-0.085938-0.85547-0.51172-0.85547-1.0156zm-3.8086-2.0547c-0.57031 0-1.0312 0.46094-1.0312 1.0273v1.4453c-1 0.29297-1.9609 0.71094-2.8594 1.2422l-1.0508-0.98828c-0.19922-0.18359-0.46484-0.28516-0.73438-0.27344-0.27344 0.007813-0.53125 0.125-0.71484 0.32422l-3.3086 3.5352v-0.003907c-0.1875 0.19922-0.28516 0.46484-0.27734 0.73438 0.011719 0.27344 0.125 0.53125 0.32422 0.71484l1.0508 0.98438h0.003906c-0.35156 0.6875-0.63672 1.4062-0.85156 2.1484h-1.4414c-0.57031 0-1.0312 0.46094-1.0312 1.0312v4.8438c0 0.56641 0.46094 1.0312 1.0312 1.0312h1.4414-0.003907c0.27734 0.92969 0.65625 1.8242 1.1367 2.668l-1 1.0352c-0.19141 0.19531-0.29688 0.45703-0.29297 0.73047 0.003907 0.26953 0.11719 0.53125 0.3125 0.72266l3.4766 3.3672c0.19531 0.19141 0.45703 0.29688 0.73047 0.29297 0.27344-0.003907 0.53125-0.11719 0.72266-0.3125l1-1.0352c0.74219 0.39453 1.5234 0.71094 2.3359 0.94531v1.4414c0 0.57031 0.46094 1.0312 1.0273 1.0312h4.8398c0.57031 0 1.0312-0.46094 1.0312-1.0312v-1.4414c1.0039-0.29297 1.9648-0.71484 2.8633-1.2461l1.0547 0.98438h-0.003906c0.41406 0.38672 1.0625 0.36719 1.4531-0.046875l3.3086-3.5352h-0.003906c0.1875-0.19922 0.28516-0.46094 0.27734-0.73438-0.007813-0.26953-0.125-0.52734-0.32422-0.71484l-1.0508-0.98438c0.35156-0.68359 0.63672-1.4062 0.85156-2.1445h1.4414-0.003906c0.56641 0 1.0273-0.45703 1.0312-1.0234v-4.8398c0-0.57031-0.46094-1.0312-1.0312-1.0312h-1.4414c-0.26953-0.93359-0.65234-1.832-1.1328-2.6758l1-1.0352c0.19141-0.19531 0.29687-0.45703 0.29297-0.73047-0.003906-0.27344-0.11719-0.53125-0.3125-0.72266l-3.4727-3.3672c-0.19531-0.1875-0.45703-0.29297-0.73047-0.28906-0.27344 0.003906-0.53125 0.11328-0.72266 0.30859l-1.0078 1.0352v0.003906c-0.74219-0.39844-1.5234-0.71484-2.332-0.94922v-1.4453c0-0.56641-0.46094-1.0273-1.0312-1.0273zm7.375 9.3906v-0.003906c2.0039 2.0039 2.6016 5.0156 1.5156 7.6367-1.082 2.6172-3.6367 4.3242-6.4727 4.3242-2.832 0-5.3867-1.707-6.4727-4.3242-1.082-2.6211-0.48438-5.6328 1.5195-7.6367 2.7383-2.7344 7.1719-2.7344 9.9102 0zm-4.957-4.1172c3.668 0 6.9766 2.207 8.3828 5.5938s0.62891 7.2891-1.9609 9.8828c-2.5938 2.5938-6.4961 3.3711-9.8828 1.9688-3.3906-1.4023-5.5977-4.7109-5.5977-8.3789 0-5.0039 4.0547-9.0625 9.0586-9.0664z" fill-rule="evenodd"/></svg>