<svg xmlns="http://www.w3.org/2000/svg" viewBox="0 0 60 70">
  <path d="m8.2539 15.516h27.352l-16.121 5.6016h-8.8359v37.363h78.711v-37.363h-8.8125l-16.145-5.6016h27.367c1.7695 0 3.2109 1.4414 3.2109 3.2109v47.902c0 1.7695-1.4375 3.2148-3.2109 3.2148h-83.516c-1.7734 0-3.2344-1.4414-3.2344-3.2148v-47.902c0-1.7695 1.4609-3.2109 3.2344-3.2109zm27.727 35.77 0.90625 0.77344-0.46484 1.6367-0.46484 1.6406h-2.9688l-0.46484-1.6406-0.46484-1.6367 0.90625-0.77344 0.023437-21.594c0-0.62109 0.375-1.1953 0.99609-1.418l15.523-5.4023c0.55469-0.37891 0.77344-1.0625 0.55469-1.6836-0.22266-0.62109-0.82031-1.0195-1.4844-0.97656l-15.523 5.4297c-1.2617 0.42188-2.2148 1.4141-2.6367 2.6367l-11.473-3.9883 15.523-5.4023 15.531-5.4297 15.523 5.4258 15.523 5.4023-15.523 5.4062-15.523 5.4023-13.242-4.6055-0.77344 0.26953v2.4336l14.016 4.8945 23.609-8.2148v14.129c0 0.48828-0.35547 0.90625-0.84375 0.99609-6.2891 1.0859-14.195 1.7266-22.77 1.7266-4.9609 0-9.6992-0.22266-14.02-0.59766zm-5.8008-5.8242c-1.0195-0.15234-1.9922-0.3125-2.9219-0.46484-0.48828-0.089844-0.84375-0.51172-0.84375-0.99609v-14.133l3.7656 1.3047zm0.59766 41.082h38.469v-4.2539c0-2.3477-1.9258-4.2734-4.2734-4.2734h-8.793v-5.3594h-12.359v5.3594h-8.793c-2.3477 0-4.2539 1.9258-4.2539 4.2734z" fill-rule="evenodd"/>

</svg>
