<svg xmlns="http://www.w3.org/2000/svg" xmlns:xlink="http://www.w3.org/1999/xlink" version="1.1" x="0px" y="0px" viewBox="0 0 66 66" enable-background="new 0 0 66 66" xml:space="preserve"><g><path d="M48.7,21.6c0.4-0.4,0.4-1,0-1.4c-0.4-0.4-1-0.4-1.4,0c-0.4,0.4-0.4,1,0,1.4C47.7,22,48.3,22,48.7,21.6z"/><path d="M41.7,32.9c-0.4-0.4-1-0.4-1.4,0l-1.9,1.8c-0.4,0.4-0.4,1,0,1.4c0.4,0.4,1,0.4,1.4,0l1.9-1.8   C42.1,33.9,42.1,33.3,41.7,32.9z"/><path d="M39.8,8.8L41.7,7c0.4-0.4,0.4-1,0-1.4c-0.4-0.4-1-0.4-1.4,0l-1.9,1.8c-0.4,0.4-0.4,1,0,1.4C38.7,9.1,39.4,9.1,39.8,8.8z"/><path d="M39,18c1,0,1.9,0.8,1.9,1.9c0,0.6,0.4,1,1,1c0.6,0,1-0.4,1-1c0-2.1-1.7-3.9-3.9-3.9c-0.6,0-1,0.4-1,1   C38,17.6,38.5,18,39,18z"/><path d="M39.5,25.2c0,0.6,0.4,1,1,1c0.6,0,1-0.4,1-1c0-2.1-1.7-3.9-3.9-3.9c-0.6,0-1,0.4-1,1c0,0.6,0.4,1,1,1   C38.6,23.4,39.5,24.2,39.5,25.2z"/><path d="M42.8,40.1c2.5-1.1,4.1-3.8,3.6-6.7c2.7-1.2,4.1-4,3.6-6.8c4.6-2.3,4.5-8.9-0.1-11.1c0.8-3.2-1.1-6-3.6-7.1   c0.6-3.7-2.3-7.2-6.1-7.2c0,0,0,0,0,0c0,0,0,0,0,0c-3.4,0-6.2,2.8-6.2,6.2v27.1C34,38.9,38.7,41.9,42.8,40.1z M36,34.4V7.4   c0-2.3,1.9-4.2,4.2-4.2c0,0,0,0,0,0c5.5,0,5.5,8.3,0,8.3c-0.6,0-1,0.4-1,1c0,0.6,0.4,1,1,1c2.3,0,4.4-1.3,5.4-3.2   c2.8,1.3,3.3,5.2,0.6,6.9c-0.5,0.3-0.6,0.9-0.3,1.4c0.3,0.5,0.9,0.6,1.4,0.3c0.7-0.4,1.2-1,1.6-1.6c3,1.4,3.1,5.9,0.2,7.5   c-0.7-1.1-1.6-1.9-2.9-2.4c-0.5-0.2-1.1,0-1.3,0.6c-0.2,0.5,0,1.1,0.6,1.3c3.4,1.3,3.2,5.9,0.1,7.3c-1-1.9-3.1-3.2-5.4-3.2   c-0.6,0-1,0.4-1,1c0,0.6,0.4,1,1,1c4.5,0,5.8,6.2,1.7,8C39.1,39.5,36,37.4,36,34.4z"/><path d="M17.3,20.2c-0.4,0.4-0.4,1,0,1.4c0.4,0.4,1,0.4,1.4,0c0.2-0.2,0.3-0.4,0.3-0.7C19,20,17.9,19.6,17.3,20.2z"/><path d="M25.7,32.8c-0.4-0.4-1-0.4-1.4,0c-0.4,0.4-0.4,1,0,1.4l1.9,1.8c0.4,0.4,1,0.4,1.4,0c0.4-0.4,0.4-1,0-1.4L25.7,32.8z"/><path d="M27.6,8.7c0.4-0.4,0.4-1,0-1.4l-1.9-1.8c-0.4-0.4-1-0.4-1.4,0c-0.4,0.4-0.4,1,0,1.4l1.9,1.8C26.6,9.1,27.3,9.1,27.6,8.7z"/><path d="M25.1,19.9c0-1,0.8-1.9,1.9-1.9c0.6,0,1-0.4,1-1c0-0.6-0.4-1-1-1c-2.1,0-3.9,1.7-3.9,3.9c0,0.6,0.4,1,1,1   C24.6,20.9,25.1,20.5,25.1,19.9z"/><path d="M24.5,25.2c0,0.6,0.4,1,1,1c0.6,0,1-0.4,1-1c0-1,0.8-1.9,1.9-1.9c0.6,0,1-0.4,1-1c0-0.6-0.4-1-1-1   C26.3,21.4,24.5,23.1,24.5,25.2z"/><path d="M25.8,1.2C25.7,1.2,25.7,1.2,25.8,1.2C25.7,1.2,25.7,1.2,25.8,1.2c-3.8,0-6.7,3.5-6.1,7.2c-2.6,1.1-4.3,4-3.6,7.1   c-4.6,2.2-4.6,8.8-0.1,11.1c-0.5,2.8,1,5.7,3.6,6.8c-0.6,3.7,2.3,7.2,6.1,7.2c0,0,0,0,0,0c0,0,0,0,0,0c3.4,0,6.2-2.8,6.2-6.2V7.4   C32,3.9,29.2,1.2,25.8,1.2z M30,34.4c0,2.3-1.9,4.2-4.2,4.2c0,0,0,0,0,0c-2.3,0-4.2-1.9-4.2-4.2c0-2.3,1.9-4.2,4.2-4.2   c0.6,0,1-0.4,1-1c0-0.6-0.4-1-1-1c-2.3,0-4.4,1.3-5.4,3.2c-3.1-1.4-3.3-6,0.1-7.3c0.5-0.2,0.8-0.8,0.6-1.3   c-0.2-0.5-0.8-0.8-1.3-0.6c-1.2,0.5-2.2,1.3-2.9,2.4c-3-1.6-2.9-6,0.2-7.5c0.4,0.6,1,1.2,1.6,1.6c0.5,0.3,1.1,0.2,1.4-0.3   c0.3-0.5,0.2-1.1-0.3-1.4c-2.7-1.8-2.1-5.6,0.6-6.9c1,1.9,3.1,3.2,5.4,3.2c0.6,0,1-0.4,1-1c0-0.6-0.4-1-1-1c-2.3,0-4.2-1.9-4.2-4.2   c0-2.3,1.9-4.2,4.2-4.2c0,0,0,0,0,0C28.1,3.2,30,5,30,7.4V34.4z"/><path d="M61.3,22.3c-1,0-2,0.3-2.8,1.1c-0.8,0.8-1.3,1.9-1.3,3v8.2c-1.3-0.3-2.6,0.1-3.6,1l-9.8,9.8C42,47.2,41,49.6,41,52.2v4.5   h-0.2c-0.6,0-1,0.4-1,1v6.1c0,0.6,0.4,1,1,1c0.6,0,1-0.4,1-1v-5.1c4.5,0,9.6,0,14.2,0v5.1c0,0.6,0.4,1,1,1c0.6,0,1-0.4,1-1v-6.1   c0-0.6-0.4-1-1-1h-0.2v-2l6.7-6.5c1-0.9,1.5-2.2,1.5-3.5V26.2C65,24.1,63.4,22.4,61.3,22.3z M63,44.7c0,0.8-0.3,1.5-0.9,2.1l-7,6.7   c-0.2,0.2-0.3,0.4-0.3,0.7v2.5H43v-4.5c0-2,0.8-3.9,2.2-5.4l9.8-9.8c0.7-0.7,1.9-0.8,2.7,0c0.7,0.7,0.7,1.9,0,2.7c0,0,0,0,0,0   c0,0,0,0,0,0v0l-4.8,4.8c-0.4,0.4-0.4,1,0,1.4c0.4,0.4,1,0.4,1.4,0l4.8-4.8c1.5-1.5,1.5-3.9,0.1-5.4v-9.3c0-0.6,0.2-1.1,0.7-1.5   c0.4-0.4,0.8-0.5,1.3-0.5c1,0,1.8,0.9,1.8,1.9V44.7z"/><path d="M53.8,59c-0.6,0-1,0.4-1,1v1.5c0,0.6,0.4,1,1,1s1-0.4,1-1V60C54.8,59.5,54.3,59,53.8,59z"/><path d="M50.8,59c-0.6,0-1,0.4-1,1v1.5c0,0.6,0.4,1,1,1c0.6,0,1-0.4,1-1V60C51.8,59.5,51.4,59,50.8,59z"/><path d="M25.2,56.7H25v-4.5c0-2.6-1-5-2.8-6.8l-9.8-9.8c-1-1-2.3-1.3-3.6-1v-8.2c0-2.2-1.8-4.1-4-4C2.6,22.4,1,24.1,1,26.2v18.5   c0,1.3,0.5,2.6,1.5,3.5l6.7,6.5v2H9c-0.6,0-1,0.4-1,1v6.1c0,0.6,0.4,1,1,1c0.6,0,1-0.4,1-1v-5.1c4.5,0,9.6,0,14.2,0v5.1   c0,0.6,0.4,1,1,1c0.6,0,1-0.4,1-1v-6.1C26.2,57.1,25.8,56.7,25.2,56.7z M11.2,56.7v-2.5c0-0.3-0.1-0.5-0.3-0.7l-7-6.7   C3.3,46.2,3,45.5,3,44.7V26.2c0-1,0.8-1.8,1.8-1.9c1.1,0,2,1,2,2v9.3c-1.5,1.6-1.3,4,0.1,5.4c0,0,0,0,0,0l4.8,4.8   c0.4,0.4,1,0.4,1.4,0c0.4-0.4,0.4-1,0-1.4l-4.8-4.8c0,0,0,0,0,0c0,0,0,0,0,0c-0.7-0.7-0.8-2,0.1-2.8c0.7-0.6,1.8-0.6,2.5,0.1   l9.8,9.8c1.4,1.4,2.2,3.4,2.2,5.4v4.5H11.2z"/><path d="M12.2,59c-0.6,0-1,0.4-1,1v1.5c0,0.6,0.4,1,1,1c0.6,0,1-0.4,1-1V60C13.2,59.5,12.8,59,12.2,59z"/><path d="M15.2,59c-0.6,0-1,0.4-1,1v1.5c0,0.6,0.4,1,1,1c0.6,0,1-0.4,1-1V60C16.2,59.5,15.7,59,15.2,59z"/></g></svg>