<svg xmlns="http://www.w3.org/2000/svg" version="1.1" viewBox="-5.0 -10.0 110 122">
 <path d="m62.277 63.652v-2.3008c-0.054688-5.7422-4.7266-10.367-10.465-10.367-5.7422 0-10.41 4.625-10.469 10.367v2.3008zm-38.453-6.2422c0.50781 1.832-0.56641 3.7305-2.4023 4.2344-1.832 0.50781-3.7305-0.57031-4.2344-2.4023-1.7305-6.2148-1.7695-12.781-0.10938-19.016 0.49219-1.8438 2.3867-2.9375 4.2266-2.4453 1.8398 0.49219 2.9375 2.3828 2.4453 4.2227-1.3516 5.0508-1.3242 10.367 0.074219 15.402zm-2.3984 1.4375v-0.003906c0.13672-0.24219 0.17578-0.53125 0.10156-0.79688-1.5156-5.4453-1.5469-11.195-0.089844-16.656 0.15234-0.56641-0.17969-1.1445-0.74609-1.2969-0.5625-0.14844-1.1445 0.18359-1.293 0.75-1.5547 5.8242-1.5195 11.957 0.097656 17.766 0.11719 0.41016 0.46484 0.71094 0.89062 0.76172 0.42188 0.054687 0.83594-0.15625 1.0469-0.52344zm27.758-38.238c-0.91016 0.082031-1.8164-0.20703-2.5156-0.79297-0.69531-0.58984-1.1328-1.4297-1.2109-2.3398-0.16406-1.8945 1.2383-3.5664 3.1328-3.7305 5.8398-0.53906 11.719 0.36328 17.129 2.6328 1.7578 0.73438 2.5859 2.7617 1.8477 4.5195-0.73828 1.7578-2.7617 2.5859-4.5195 1.8477-4.3828-1.8164-9.1367-2.5508-13.863-2.1445zm-0.97656-2.625v0.003906c0.21484 0.17578 0.49219 0.26172 0.77344 0.23438 5.1094-0.44922 10.254 0.34375 14.992 2.3164 0.53125 0.20703 1.1367-0.046874 1.3594-0.57422 0.22266-0.53125-0.015625-1.1406-0.54297-1.375-5.0469-2.1211-10.543-2.9688-16-2.4648-0.42187 0.035156-0.78125 0.32422-0.91016 0.73047s0 0.84766 0.32422 1.1211zm29.566 18.496c-0.42578-0.81641-0.50781-1.7734-0.22656-2.6523s0.90234-1.6055 1.7266-2.0234c0.82422-0.41406 1.7812-0.48047 2.6562-0.1875 0.875 0.29687 1.5938 0.93359 1.9961 1.7617 4.7734 9.4688 5.125 20.562 0.95312 30.309-0.74609 1.7539-2.7695 2.5703-4.5195 1.8242-1.7539-0.74609-2.5703-2.7695-1.8242-4.5234 3.3594-7.8828 3.082-16.848-0.76172-24.508zm2.0781-1.8789c-0.089843 0.26172-0.070312 0.55469 0.058594 0.80469 4.1602 8.2852 4.4648 17.988 0.82812 26.52-0.22656 0.53516 0.023438 1.1562 0.55859 1.3828 0.53906 0.23047 1.1602-0.023438 1.3867-0.55859 3.8867-9.1055 3.5586-19.457-0.89453-28.301-0.19141-0.37891-0.59375-0.60547-1.0156-0.57422-0.42578 0.03125-0.78906 0.31641-0.92188 0.72266zm-22.691 43.531v-0.003906c0.90625-0.18359 1.8516 0.003906 2.6172 0.51953 0.76953 0.51953 1.293 1.3242 1.4609 2.2344 0.16797 0.91016-0.039062 1.8477-0.57422 2.6055-0.53516 0.75391-1.3516 1.2656-2.2656 1.4102-5.9219 1.1055-12.027 0.70703-17.754-1.1562-1.3242-0.43359-2.2578-1.6211-2.3672-3.0117s0.625-2.707 1.8672-3.3438c0.8125-0.41406 1.7617-0.48828 2.6289-0.19922 4.6406 1.5039 9.5859 1.8281 14.383 0.94531zm1.2227 2.5156c-0.23047-0.16016-0.51562-0.22266-0.78906-0.17188-5.1914 0.96094-10.535 0.60938-15.555-1.0234-0.55469-0.17969-1.1523 0.125-1.3359 0.67969-0.17969 0.55469 0.125 1.1523 0.67969 1.3359 5.3555 1.7383 11.059 2.1133 16.594 1.0859 0.41797-0.078126 0.75-0.40234 0.83984-0.82031 0.085938-0.41406-0.082031-0.84375-0.43359-1.0859zm16.352-9.9141c1.3398-2.4219 3.9219-3.8828 6.6875-3.7852 4.3555 0 7.8906 3.5312 7.8906 7.8867 0 6.0664-4.793 10.66-10.395 16.023-1.0352 1-2.1133 2.0273-3.3359 3.2539v0.003907c-0.46875 0.46484-1.2227 0.46484-1.6914 0-1.2266-1.2266-2.3008-2.2539-3.3438-3.2539-5.5977-5.3633-10.387-9.9648-10.387-16.027 0-4.3555 3.5312-7.8867 7.8867-7.8867 2.7617-0.10156 5.3477 1.3633 6.6875 3.7812zm3.4648-0.39844-0.003907-0.003907c-1.0273 0.94141-1.8438 2.0898-2.3945 3.3672-0.20312 0.40234-0.61719 0.66016-1.0664 0.66016-0.45312 0-0.86719-0.25781-1.0703-0.66016-1.3633-2.7305-2.6172-4.3516-5.6211-4.3516-3.0312 0.003906-5.4883 2.4609-5.4883 5.4922 0 5.0547 4.4492 9.3164 9.6523 14.301 0.84766 0.81641 1.7188 1.6484 2.5273 2.4453 0.81641-0.80078 1.6836-1.6289 2.5312-2.4453 5.1992-4.9844 9.6523-9.25 9.6523-14.301h-0.003907c-0.003906-3.0352-2.4648-5.4922-5.5-5.4922-1.1562-0.058594-2.2969 0.28906-3.2227 0.98828zm-58.621-3.6016h11.84c0.66016 0 1.1992 0.53516 1.1992 1.1992v7.4492c0 0.66406-0.53906 1.1992-1.1992 1.1992h-11.84c-0.32031 0.003907-0.625-0.125-0.85156-0.34766-0.22656-0.22656-0.35156-0.53125-0.34766-0.85156v-7.4492c0-0.66406 0.53516-1.1992 1.1992-1.1992zm10.641 2.3984h-9.4453v5.0586h9.4453zm5.6094 21.113c-0.066406 0.14453-0.097656 0.30078-0.097656 0.45703 0.023437 0.26562 0.10156 0.51953 0.23828 0.74609 0.19922 0.11328 0.375 0.26562 0.51953 0.44531 0.61719 0.75391 0.55859 1.8555-0.13281 2.5469-0.35938 0.35156-0.83594 0.55078-1.3398 0.55859h-20.137c-1.1328-0.003906-2.2148-0.46094-3.0039-1.2734s-1.2188-1.9062-1.1875-3.0391v-24.836c0.003906-1.9609 1.5938-3.5547 3.5586-3.5586h19.117c1.9336 0 3.5 1.5664 3.5 3.5l0.058594 22.594c0.054687 0.78125-0.375 1.5234-1.0898 1.8555zm-1.9414 2.3555c-0.67578-1.0898-0.71875-2.457-0.11328-3.5859h-18.898c-0.72656 0-1.3789 0.4375-1.6562 1.1055-0.27734 0.67188-0.125 1.4414 0.39062 1.9531 0.33203 0.33984 0.78906 0.53125 1.2656 0.52734zm-14.148-10.867c-0.66406 0-1.2031-0.53906-1.2031-1.2031 0-0.66016 0.53906-1.1992 1.2031-1.1992h11.516c0.66016 0 1.1992 0.53906 1.1992 1.1992 0 0.66406-0.53906 1.2031-1.1992 1.2031zm0 2.9062v-0.003906c-0.66406 0-1.2031-0.53516-1.2031-1.1992s0.53906-1.1992 1.2031-1.1992h11.516c0.66016 0 1.1992 0.53516 1.1992 1.1992s-0.53906 1.1992-1.1992 1.1992zm14.789 1.9844-0.054688-20.824c-0.011718-0.60938-0.50391-1.0977-1.1094-1.1055h-16.836v21.926zm-20.398 0.066406v-22h-0.003906c-0.59375 0.0625-1.043 0.5625-1.0469 1.1562v21.18c0.33203-0.15625 0.68359-0.27344 1.0469-0.33594zm11.609-78.121-0.99219-1.7539h-0.003906c-0.16797-0.26953-0.22266-0.59766-0.15234-0.90625 0.074218-0.3125 0.26953-0.58203 0.54297-0.74609 0.27344-0.16797 0.59766-0.21484 0.91016-0.14062 0.30859 0.078124 0.57422 0.27734 0.73828 0.55078 0.48047 0.78516 0.76562 1.3711 1.1836 2.0898 0.20703 0.34375 0.34766 0.72656 0.40625 1.125 1.5273-0.55078 3.1094-0.9375 4.7188-1.1562 13.863 0 13.863 27.824 0 27.824-1.4883 0-6-0.625-7.8555-0.76953-1.1445 0.34766-2.3125 0.60547-3.4922 0.76953-13.863 0-13.863-27.824 0-27.824 1.3633 0.16016 2.7031 0.47656 4 0.9375zm12.988 5.8789c0.19531 0.26953 0.27344 0.60938 0.21094 0.9375-0.0625 0.32422-0.25781 0.61328-0.53906 0.78906-0.28125 0.17969-0.625 0.23047-0.94922 0.14453-0.32031-0.085937-0.59375-0.30078-0.75-0.59375-0.52734-0.86719-1.2266-1.6172-2.0586-2.1992-0.27344-0.17188-0.46484-0.44922-0.53125-0.76172-0.066406-0.31641-0.003906-0.64453 0.17578-0.91406 0.17969-0.26562 0.46094-0.44922 0.77734-0.50781s0.64453 0.011719 0.90625 0.19922c1.1094 0.76562 2.0508 1.7578 2.7539 2.9102zm-10.176 16.711c0.44531-0.125 0.92188 0.019532 1.2266 0.36719 0.30078 0.35156 0.37891 0.84375 0.19531 1.2656 1.2891 0.14453 2.4805 0.27344 3.1172 0.27344 10.672 0 10.672-23.039 0-23.039-1.2812 0-7.0859 2.2305-9.2109 2.3711-0.51562 0.027343-0.99219-0.27734-1.1797-0.75781-0.19141-0.48047-0.050781-1.0273 0.34766-1.3594-0.42578-0.13281-0.85938-0.21484-1.3008-0.25391-10.672 0-10.672 23.039 0 23.039 0.86328 0 5.1992-1.4531 6.8086-1.9062zm60.656-5.9336c-0.003906 2.6328-2.1367 4.7695-4.7695 4.7734-2.625 0-4.7578-2.1211-4.7656-4.7461-0.007813-1.707 0.89453-3.2852 2.3672-4.1445 1.4727-0.85547 3.293-0.85938 4.7734-0.007813v-9.0312l-13.398 2.3477-0.003906 15.383c0.003906 2.1602-1.4414 4.0547-3.5273 4.6172-2.0859 0.56641-4.293-0.34375-5.375-2.2109-1.0859-1.8672-0.78125-4.2344 0.74219-5.7656s3.8867-1.8477 5.7617-0.77344v-12.254c0-0.58203 0.41797-1.082 0.99219-1.1797 1.5703-0.27734 15.719-2.7891 16-2.7891 0.66406 0 1.1992 0.53516 1.1992 1.1992zm-2.3906 0.085938v-0.10547 0.003907c-0.035156-1.2969-1.0977-2.3242-2.3906-2.3125-1.293 0.007812-2.3438 1.0508-2.3594 2.3438 0.003906 1.3086 1.0664 2.3633 2.3711 2.3633 1.2812 0.003906 2.332-1.0078 2.3789-2.2852zm-16.5 2.8008c-0.67969-0.67578-1.6992-0.87891-2.5859-0.51172-0.88672 0.36719-1.4648 1.2305-1.4648 2.1914 0 0.96094 0.57812 1.8242 1.4648 2.1914s1.9062 0.16406 2.5859-0.51172c0.92578-0.92969 0.92578-2.4297 0-3.3594zm-18.504 4.9531c2.8633 0 5.4453 1.7266 6.5391 4.3711 1.0977 2.6445 0.49219 5.6914-1.5352 7.7188-2.0234 2.0234-5.0703 2.6289-7.7148 1.5312-2.6445-1.0938-4.3711-3.6758-4.3711-6.5391 0-1.8789 0.74609-3.6836 2.0742-5.0117 1.3281-1.3281 3.1289-2.0703 5.0078-2.0703zm3.3164 3.7656v-0.003906c-1.3398-1.3398-3.3555-1.7383-5.1094-1.0156-1.75 0.72656-2.8945 2.4375-2.8945 4.332 0 1.8984 1.1445 3.6055 2.8945 4.332 1.7539 0.72656 3.7695 0.32422 5.1094-1.0156 1.8281-1.832 1.8281-4.8008 0-6.6328zm9.5469 24.516v3.5c0 0.66016-0.53906 1.1992-1.2031 1.1992h-23.324c-0.66406 0-1.2031-0.53906-1.2031-1.1992v-3.5c0.0625-7.0586 5.8047-12.75 12.863-12.75 7.0625 0 12.801 5.6914 12.863 12.75z"/>
</svg>